<!-- <svg xmlns="http://www.w3.org/2000/svg" fill="none" viewBox="0 0 36 36">
  <path fill="#000" d="M22.25 4h-8.5a1 1 0 0 0-.96.73l-5.54 19.4a.5.5 0 0 0 .62.62l5.05-1.44a2 2 0 0 0 1.38-1.4l3.22-11.66a.5.5 0 0 1 .96 0l3.22 11.67a2 2 0 0 0 1.38 1.39l5.05 1.44a.5.5 0 0 0 .62-.62l-5.54-19.4a1 1 0 0 0-.96-.73Z"/>
  <path fill="url(#gradient)" d="M18 28a7.63 7.63 0 0 1-5-2c-1.4 2.1-.35 4.35.6 5.55.14.17.41.07.47-.15.44-1.8 2.93-1.22 2.93.6 0 2.28.87 3.4 1.72 3.81.34.16.59-.2.49-.56-.31-1.05-.29-2.46 1.29-3.25 3-1.5 3.17-4.83 2.5-6-.67.67-2.6 2-5 2Z"/>
  <defs>
    <linearGradient id="gradient" x1="16" x2="16" y1="32" y2="24" gradientUnits="userSpaceOnUse">
      <stop stop-color="#000"/>
      <stop offset="1" stop-color="#000" stop-opacity="0"/>
    </linearGradient>
  </defs>
	<style>
    @media (prefers-color-scheme:dark){:root{filter:invert(100%)}}
  </style>
</svg> -->

<!-- ?xml version="1.0" standalone="no"?   -->
<!--             
<svg id="sw-js-blob-svg" 
viewBox="0 0 100 100" 
xmlns="http://www.w3.org/2000/svg">                    
<defs>                         
<linearGradient id="sw-gradient" x1="0" x2="1" y1="1" y2="0">                            
<stop id="stop1" stop-color="rgba(0, 0, 0, 1)" offset="0%"></stop>                            
<stop id="stop2" stop-color="rgba(0, 0, 0, 1)" offset="100%"></stop>                        
</linearGradient>                    
</defs>                
<path fill="url(#sw-gradient)" d="M9.3,-11.1C14.7,-11,23.6,-12.9,26.3,-10.9C28.9,-8.8,25.3,-2.9,21.4,0.9C17.5,4.7,13.2,6.2,10.8,10C8.5,13.7,8,19.7,6.1,19.7C4.3,19.7,1,13.8,-1.4,10.5C-3.9,7.2,-5.5,6.7,-12,6.4C-18.5,6.1,-30,6,-29.3,4.8C-28.6,3.6,-15.6,1.2,-12.9,-6.4C-10.3,-14.1,-18,-27,-17.5,-29.4C-17.1,-31.8,-8.6,-23.7,-3.3,-18.5C2,-13.4,3.9,-11.2,9.3,-11.1Z" 
width="100%" height="100%" transform="translate(50 50)" 
stroke-width="0" 
style="transition: all 0.3s ease 0s;" 
stroke="url(#sw-gradient)"></path>   
<style>
@media (prefers-color-scheme:dark){:root{filter:invert(100%)}}
</style>           
</svg> -->


<svg width="124" height="50" viewBox="0 0 124 50" fill="none" xmlns="http://www.w3.org/2000/svg">
<path fill="white" d="M22.192 49.704C17.4987 49.704 13.488 48.7013 10.16 46.696C6.87467 44.648 4.37867 41.7893 2.672 38.12C0.965333 34.4507 0.112 30.1413 0.112 25.192C0.112 20.4133 1.11467 16.1893 3.12 12.52C5.12533 8.85066 7.87733 6.01333 11.376 4.008C14.8747 1.96 18.8 0.935997 23.152 0.935997C26.4373 0.935997 30.384 1.448 34.992 2.472L37.104 2.856L36.464 14.376H32.176L30.576 6.248C29.9787 5.736 28.9333 5.30933 27.44 4.968C25.9893 4.584 24.1973 4.392 22.064 4.392C19.3333 4.392 16.9013 5.18133 14.768 6.76C12.6347 8.296 10.9493 10.5787 9.712 13.608C8.51733 16.6373 7.92 20.264 7.92 24.488C7.92 28.4987 8.45333 32.1467 9.52 35.432C10.5867 38.7173 12.208 41.3413 14.384 43.304C16.56 45.224 19.248 46.184 22.448 46.184C24.7093 46.184 26.4373 45.992 27.632 45.608C28.8693 45.224 29.9147 44.6693 30.768 43.944L33.456 37.672L37.488 38.184L35.952 47.272C35.056 47.3147 33.7333 47.6133 31.984 48.168C30.448 48.6373 28.9547 49 27.504 49.256C26.096 49.5547 24.3253 49.704 22.192 49.704ZM48.0685 5.416L43.0765 4.648V1.448H51.4605C52.7832 1.448 54.6818 1.36266 57.1565 1.192C59.6312 1.02133 61.4872 0.935997 62.7245 0.935997C70.6605 0.935997 76.5485 2.94133 80.3885 6.952C84.2712 10.92 86.2125 16.5093 86.2125 23.72C86.2125 28.7547 85.2098 33.2347 83.2045 37.16C81.2418 41.0427 78.4685 44.072 74.8845 46.248C71.3005 48.424 67.1832 49.512 62.5325 49.512C61.5085 49.512 59.7592 49.4267 57.2845 49.256C54.7245 49.0853 52.8045 49 51.5245 49H42.7565V45.864L48.0685 45.224V5.416ZM54.8525 45.416C56.3458 45.7573 58.2658 45.928 60.6125 45.928H62.5325C65.7325 45.8853 68.5485 45.0747 70.9805 43.496C73.4552 41.9173 75.3752 39.5707 76.7405 36.456C78.1058 33.2987 78.7885 29.48 78.7885 25C78.7885 18.2587 77.3165 13.1387 74.3725 9.64C71.4712 6.14133 67.0765 4.392 61.1885 4.392C59.9512 4.392 58.4792 4.47733 56.7725 4.648C56.0472 4.776 55.4072 4.84 54.8525 4.84V45.416ZM106.873 49.704C104.654 49.704 102.67 49.512 100.921 49.128C99.1712 48.744 97.2512 48.232 95.1605 47.592C93.8805 47.1227 92.9205 46.8667 92.2805 46.824L92.7925 35.24H96.8885L97.9765 43.56C98.7018 44.2427 99.8752 44.8613 101.497 45.416C103.161 45.928 104.974 46.184 106.937 46.184C110.179 46.184 112.633 45.4587 114.297 44.008C116.003 42.5573 116.857 40.552 116.857 37.992C116.857 36.328 116.387 34.8987 115.449 33.704C114.553 32.5093 113.337 31.4853 111.801 30.632C110.307 29.7787 108.238 28.776 105.593 27.624C103.203 26.5573 101.113 25.4693 99.3205 24.36C97.5712 23.2507 96.0352 21.7787 94.7125 19.944C93.4325 18.0667 92.7925 15.8267 92.7925 13.224C92.7925 10.8773 93.4112 8.78667 94.6485 6.952C95.9285 5.07467 97.7418 3.60266 100.089 2.536C102.478 1.46933 105.251 0.935997 108.409 0.935997C110.371 0.935997 112.099 1.08533 113.593 1.384C115.129 1.68266 116.857 2.088 118.777 2.6C119.63 2.89866 120.355 3.09066 120.953 3.176L120.569 13.928H116.665L115.385 6.056C114.958 5.62933 114.062 5.224 112.697 4.84C111.374 4.456 109.923 4.264 108.345 4.264C105.401 4.264 103.161 4.88266 101.625 6.12C100.131 7.35733 99.3845 9.14933 99.3845 11.496C99.3845 13.2027 99.8325 14.632 100.729 15.784C101.667 16.936 102.819 17.9173 104.185 18.728C105.55 19.5387 107.726 20.648 110.713 22.056C113.486 23.3787 115.747 24.5733 117.497 25.64C119.246 26.7067 120.739 28.1147 121.977 29.864C123.257 31.5707 123.897 33.6187 123.897 36.008C123.897 38.2693 123.257 40.4453 121.977 42.536C120.739 44.6267 118.819 46.3547 116.217 47.72C113.657 49.0427 110.542 49.704 106.873 49.704Z"/>
<style>
@media (prefers-color-scheme:dark){:root{filter:invert(100%)}}
</style>   
</svg>
