<!-- <svg xmlns="http://www.w3.org/2000/svg" fill="none" viewBox="0 0 36 36">
  <path fill="#000" d="M22.25 4h-8.5a1 1 0 0 0-.96.73l-5.54 19.4a.5.5 0 0 0 .62.62l5.05-1.44a2 2 0 0 0 1.38-1.4l3.22-11.66a.5.5 0 0 1 .96 0l3.22 11.67a2 2 0 0 0 1.38 1.39l5.05 1.44a.5.5 0 0 0 .62-.62l-5.54-19.4a1 1 0 0 0-.96-.73Z"/>
  <path fill="url(#gradient)" d="M18 28a7.63 7.63 0 0 1-5-2c-1.4 2.1-.35 4.35.6 5.55.14.17.41.07.47-.15.44-1.8 2.93-1.22 2.93.6 0 2.28.87 3.4 1.72 3.81.34.16.59-.2.49-.56-.31-1.05-.29-2.46 1.29-3.25 3-1.5 3.17-4.83 2.5-6-.67.67-2.6 2-5 2Z"/>
  <defs>
    <linearGradient id="gradient" x1="16" x2="16" y1="32" y2="24" gradientUnits="userSpaceOnUse">
      <stop stop-color="#000"/>
      <stop offset="1" stop-color="#000" stop-opacity="0"/>
    </linearGradient>
  </defs>
	<style>
    @media (prefers-color-scheme:dark){:root{filter:invert(100%)}}
  </style>
</svg> -->

<!--?xml version="1.0" standalone="no"?-->              
<svg id="sw-js-blob-svg" 
viewBox="0 0 100 100" 
xmlns="http://www.w3.org/2000/svg">                    
<defs>                         
<linearGradient id="sw-gradient" x1="0" x2="1" y1="1" y2="0">                            
<stop id="stop1" stop-color="rgba(0, 0, 0, 1)" offset="0%"></stop>                            
<stop id="stop2" stop-color="rgba(0, 0, 0, 1)" offset="100%"></stop>                        
</linearGradient>                    
</defs>                
<path fill="url(#sw-gradient)" d="M9.3,-11.1C14.7,-11,23.6,-12.9,26.3,-10.9C28.9,-8.8,25.3,-2.9,21.4,0.9C17.5,4.7,13.2,6.2,10.8,10C8.5,13.7,8,19.7,6.1,19.7C4.3,19.7,1,13.8,-1.4,10.5C-3.9,7.2,-5.5,6.7,-12,6.4C-18.5,6.1,-30,6,-29.3,4.8C-28.6,3.6,-15.6,1.2,-12.9,-6.4C-10.3,-14.1,-18,-27,-17.5,-29.4C-17.1,-31.8,-8.6,-23.7,-3.3,-18.5C2,-13.4,3.9,-11.2,9.3,-11.1Z" 
width="100%" height="100%" transform="translate(50 50)" 
stroke-width="0" 
style="transition: all 0.3s ease 0s;" 
stroke="url(#sw-gradient)"></path>   
<style>
@media (prefers-color-scheme:dark){:root{filter:invert(100%)}}
</style>           
</svg>